<?xml version="1.0" ?><svg id="Layer_1" style="enable-background:new 0 0 512 512;" version="1.1" viewBox="0 0 512 512" xml:space="preserve" xmlns="http://www.w3.org/2000/svg" xmlns:xlink="http://www.w3.org/1999/xlink"><style type="text/css">
	.st0{fill:#2E2E2E;}
	.st1{fill:#5EA4D3;}
</style><g><g id="XMLID_161_"><polygon class="st0" id="XMLID_164_" points="340.1,6 340.1,112.8 448.6,112.8   "/><path class="st1" d="M448.4,124.8H328.3c-0.1,0-0.2-0.1-0.2-0.2V6.5c0-0.1-0.1-0.2-0.2-0.2H81.6    c-0.1,0-0.2,0.1-0.2,0.2v270.2h229.8l58.9,159H81.4v70c0,0.1,0.1,0.2,0.2,0.2h366.2c0.1,0,0.2-0.1,0.2-0.2l0.6-380.7    C448.6,124.9,448.5,124.8,448.4,124.8z" id="XMLID_163_"/></g><g><path class="st0" d="M116.1,332.5H105v49.9h11.1c5.5,0,9.8-1.8,13-5.5c3.2-3.7,4.8-8.4,4.8-14.2v-10.4c0-5.7-1.6-10.4-4.8-14.1    C125.9,334.3,121.6,332.5,116.1,332.5z"/><path class="st0" d="M185.9,331.7c-5,0-9,1.8-11.8,5.5c-2.9,3.6-4.3,8.3-4.3,14v12.3c0,5.7,1.4,10.4,4.3,14.1    c2.9,3.7,6.8,5.5,11.8,5.5c5.2,0,9.3-1.8,12.3-5.5c3-3.6,4.5-8.3,4.5-14.1v-12.3c0-5.7-1.5-10.3-4.5-14    C195.2,333.5,191.1,331.7,185.9,331.7z"/><path class="st0" d="M302.9,288.8H63.4v135h289.5L302.9,288.8z M145.3,362.5c0,8.5-2.7,15.4-8.1,20.8c-5.4,5.4-12.4,8-21.1,8H93.7    v-68h22.5c8.6,0,15.6,2.7,21.1,8.1c5.4,5.4,8.1,12.3,8.1,20.8V362.5z M214.1,363.5c0,8.3-2.6,15.2-7.8,20.7    c-5.2,5.5-12,8.2-20.4,8.2c-8.1,0-14.8-2.7-19.9-8.2c-5.1-5.5-7.7-12.4-7.7-20.7v-12.2c0-8.3,2.5-15.2,7.6-20.7    c5.1-5.5,11.7-8.2,19.9-8.2c8.3,0,15.1,2.7,20.3,8.2c5.2,5.5,7.9,12.4,7.9,20.7V363.5z M242.4,377.8c2.7,3.7,6.5,5.5,11.2,5.5    c4.6,0,8.2-1.2,10.6-3.6c2.4-2.4,3.6-5.9,3.6-10.5h10.9l0.1,0.3c0.1,6.9-2.1,12.4-6.7,16.6c-4.6,4.2-10.8,6.3-18.6,6.3    c-7.9,0-14.3-2.7-19.3-8c-4.9-5.3-7.4-12.2-7.4-20.5v-12.9c0-8.3,2.4-15.1,7.3-20.5c4.9-5.4,11.2-8.1,19-8.1c8,0,14.3,2,18.9,6.1    c4.6,4.1,6.8,9.7,6.7,16.8l-0.1,0.3h-11c0-4.5-1.2-8-3.7-10.4c-2.5-2.4-6.1-3.6-10.8-3.6c-4.6,0-8.3,1.8-11,5.5    c-2.7,3.7-4,8.3-4,13.9v13C238.3,369.5,239.7,374.1,242.4,377.8z"/></g></g></svg>